<?xml version="1.0" encoding="utf-8"?>
<!-- Generator: Adobe Adobe Illustrator 24.2.0, SVG Export Plug-In . SVG Version: 6.00 Build 0)  -->
<svg version="1.1" id="Layer_1" xmlns="http://www.w3.org/2000/svg" xmlns:xlink="http://www.w3.org/1999/xlink" x="0px" y="0px"
	 width="400px" height="400px" viewBox="0 0 400 400" style="enable-background:new 0 0 400 400;" xml:space="preserve">
<style type="text/css">
	.st0{fill:url(#SVGID_1_);}
</style>
<linearGradient id="SVGID_1_" gradientUnits="userSpaceOnUse" x1="200" y1="383.6012" x2="200" y2="-0.3218">
	<stop  offset="0" style="stop-color:#EA33F7"/>
	<stop  offset="0.034" style="stop-color:#D133EA"/>
	<stop  offset="0.0667" style="stop-color:#BE33E0"/>
	<stop  offset="1" style="stop-color:#2D3292"/>
</linearGradient>
<path class="st0" d="M344.93,232.78c-6.77-7.92-15.69-9.55-24.83-9.98c-15.37-0.71-30.87,0.03-46.13-1.6
	c-24.35-2.6-38.69-9.3-45.72-38.11c-4.57-18.71,0.81-40.19,21.53-49.04c13.47-5.75,27-3.93,40.18,1.04
	c15.61,5.88,29.21,14.95,41.82,25.97c22.78,19.91,39.27,44.66,55.22,69.84c6.13,9.68,5.44,20.38,1.68,30.83
	c-8.93,24.78-21.17,47.55-38.4,67.82c-17.65,20.77-38.43,37.18-62.63,49.19c-18.5,9.19-37.93,16.03-58.76,17.79
	c-11.31,0.96-22.64,2.57-33.94,2.44c-24.54-0.28-48.15-5.51-70.99-14.76c-29.47-11.94-53.96-30.71-74.71-54.3
	c-18.93-21.52-32.31-46.54-40.21-74.05c-3.42-11.92,1.83-22.84,8.56-33.15c13.68-20.98,27.93-41.46,46.43-58.53
	c15.57-14.36,32.71-26.43,53.66-31.61c15.01-3.71,29.57-3.24,41.71,8.11c13.72,12.82,15.16,28.66,10.66,45.78
	c-4.56,17.36-15.52,28.41-32.93,32.88c-3.75,0.96-7.62,1.84-11.47,2c-15.38,0.62-30.79,0.59-46.14,1.52
	c-8.48,0.51-17.57,0.99-23.81,8.04c-7.91,8.94-9.64,18.2-4.93,29.62c8.43,20.42,20.19,38.57,36.01,53.76
	c23.23,22.3,50.31,37.42,82.46,43.61c16.17,3.12,32.34,3.27,48.23,1.92c24.78-2.1,47.63-11.07,68.8-24.68
	c19.25-12.37,35.17-27.96,47.47-46.87c6.8-10.46,11.21-22.53,16.22-34.08C353.38,246.33,349.82,239.48,344.93,232.78 M258.34,177.33
	c-0.08,2.95-1.09,6.28-0.07,8.79c5.22,12.85,33.04,18.6,44.4,11.69c4.05-2.46,5.84-9.33,3.56-12.79
	C297.13,171.22,268.63,167.91,258.34,177.33 M92.95,192.25c2.65,2.38,4.93,5.95,8.02,6.93c13.36,4.25,25.61,0.18,36.36-7.67
	c2.88-2.1,4.72-7.61,4.42-11.35c-0.19-2.43-4.79-5.56-7.98-6.53c-12.09-3.66-23.49-1.56-34.2,5.36
	C94.75,182.1,91.58,185.57,92.95,192.25z M2.15,191.6c0.46-39.31,13.24-73.99,34.92-105.47c18.01-26.15,41.27-46.77,69.37-61.69
	c19.88-10.56,40.89-18.17,63.31-20.8c14.03-1.64,28.3-3.21,42.33-2.43c21.13,1.18,41.79,5.99,61.53,13.98
	c27.09,10.96,50.76,27.07,70.68,48.43c11.52,12.36,21.17,26.1,29.53,40.88c9.18,16.23,15.09,33.67,19.76,51.45
	c2.82,10.73,3.03,22.17,4.15,33.32c0.7,6.93,1.02,13.9,1.26,20.86c0.05,1.48-1.01,3-1.56,4.5c-1.07-0.87-2.47-1.54-3.16-2.64
	c-12.14-19.38-24.37-38.71-36.21-58.27c-8.66-14.3-15.77-29.63-25.39-43.22c-12.86-18.18-30.89-29.62-53-34.45
	c-16.51-3.6-32.42-0.81-47.17,5.72c-9.91,4.39-18.61,11.96-27.05,19.06c-4.69,3.95-7.44,5.23-11.92,0.14
	c-12.95-14.73-30.02-22.91-48.83-25.83c-21.21-3.29-40.79,2.91-58.14,15.77C71.2,102.32,61.2,117.65,52.04,134.2
	c-13.11,23.67-27.9,46.4-41.89,69.58c-1.23,2.03-1.69,4.51-2.87,6.57c-0.9,1.57-2.37,2.8-3.59,4.19c-0.94-1.77-2.69-3.54-2.68-5.31
	C1.03,203.56,1.72,197.91,2.15,191.6z M120.52,267.81c-2.05-2.63-3.89-4.87-5.49-7.26c-4.05-6.07-6.67-6.01-10.21,0.21
	c-0.74,1.3-1.96,2.33-2.95,3.49c-0.81-1.52-1.99-2.94-2.37-4.56c-5.03-21.71,14.95-31.09,31.98-26.27c4.03,1.14,8,2.57,11.87,4.18
	c1.03,0.43,1.56,2.04,2.33,3.11c-1.09,0.5-2.15,1.11-3.28,1.46c-2.11,0.66-4.27,1.17-6.41,1.74c1.22,2.24,2.22,4.64,3.7,6.69
	c10.67,14.75,25.21,23.7,42.74,27.88c21.6,5.16,41.81,1.49,59.8-11.41c6.75-4.84,12.12-11.61,18.03-17.59
	c1.88-1.9,3.48-4.09,5.21-6.14c-2.98-0.39-5.96-0.73-8.93-1.19c-0.94-0.14-1.83-0.57-2.74-0.86c0.51-0.87,0.82-2.16,1.57-2.53
	c3.76-1.84,7.54-3.74,11.51-5.05c9.19-3.04,18.04-1.95,26.21,3.3c6.51,4.18,10.58,17.76,7.08,24.04c-0.38,0.68-3.72,0.72-4.7-0.11
	c-6.95-5.91-7.63-5.61-13.19,2.08c-15.95,22.05-37.06,35.98-64.01,41.56c-28.48,5.9-53.8-1.12-76.95-17.19
	C133.7,282.11,127.62,274.62,120.52,267.81z M247.32,231.81c0.04,6.52-0.73,10.97-8.43,11.93c-9.02,1.13-14.5,7.43-17.65,15.98
	c-0.94,2.55-3.06,5.47-5.41,6.57c-10.66,5.01-21.78,3.52-32.51,0.26c-2.55-0.77-4.97-4.66-5.88-7.59
	c-2.47-8.03-7.01-13.02-15.58-14.25c-5.58-0.8-9.97-4.38-10.26-9.8c-0.31-5.8,3.29-11.19,8.72-13.29
	c7.64-2.96,15.73-5.09,23.81-6.52c7.02-1.24,14.34-1.77,21.44-1.3c12.16,0.8,24.66,1.34,35.02,9.03
	C243.36,224.9,245.1,228.35,247.32,231.81z"/>
</svg>
