<?xml version="1.0" standalone="no"?>
<!DOCTYPE svg PUBLIC "-//W3C//DTD SVG 20010904//EN"
 "http://www.w3.org/TR/2001/REC-SVG-20010904/DTD/svg10.dtd">
<svg version="1.0" xmlns="http://www.w3.org/2000/svg"
 width="700.000000pt" height="700.000000pt" viewBox="0 0 700.000000 700.000000"
 preserveAspectRatio="xMidYMid meet">
<metadata>
Created by potrace 1.14, written by Peter Selinger 2001-2017
</metadata>
<g transform="translate(0.000000,700.000000) scale(0.100000,-0.100000)"
fill="#000000" stroke="none">
<path d="M3547 6984 c-1 -1 -68 -5 -148 -8 -80 -4 -154 -8 -165 -10 -10 -2
-50 -7 -89 -10 -38 -4 -83 -9 -100 -11 -16 -2 -52 -7 -80 -10 -92 -10 -294
-48 -350 -65 -16 -5 -64 -19 -105 -31 -257 -73 -566 -211 -835 -375 -114 -69
-285 -189 -356 -249 -19 -16 -60 -50 -90 -75 -57 -47 -283 -270 -334 -330
-129 -152 -205 -253 -307 -410 -124 -191 -204 -342 -328 -625 -52 -119 -143
-429 -165 -565 -3 -19 -8 -42 -10 -50 -10 -34 -35 -252 -40 -355 -4 -60 -8
-137 -10 -170 -19 -304 -19 -311 6 -351 l23 -37 38 43 c21 23 38 48 38 54 0
23 61 129 235 411 298 484 396 650 650 1093 72 127 225 321 337 428 213 205
500 361 733 399 17 3 55 9 85 14 100 16 282 10 410 -13 170 -32 376 -112 511
-199 86 -55 199 -149 260 -215 30 -32 69 -67 87 -76 31 -16 35 -16 75 3 23 10
94 63 157 116 139 116 280 212 381 259 73 34 236 89 294 101 17 3 41 8 55 11
97 20 313 25 400 9 230 -41 437 -120 609 -232 47 -31 88 -59 91 -62 3 -4 15
-14 26 -22 40 -26 129 -114 195 -190 105 -120 198 -265 361 -563 27 -49 63
-114 80 -145 43 -77 224 -376 259 -429 16 -24 29 -45 29 -47 0 -13 446 -713
464 -727 28 -24 32 -23 46 12 11 26 8 234 -5 360 -5 47 -13 138 -20 230 -16
199 -29 284 -69 445 -52 210 -174 542 -271 734 -121 243 -332 557 -507 759
-130 149 -381 380 -533 491 -38 28 -74 54 -80 58 -19 15 -97 67 -115 78 -10 5
-69 40 -132 77 -192 113 -449 230 -660 299 -92 30 -259 78 -293 85 -11 2 -51
10 -90 18 -88 19 -176 34 -240 41 -27 3 -61 8 -74 10 -13 2 -78 7 -145 11 -66
3 -136 7 -154 8 -18 1 -33 1 -35 0z"/>
<path d="M2245 4712 c-237 -25 -518 -133 -750 -288 -398 -267 -714 -611 -1112
-1209 -128 -192 -175 -275 -209 -372 -25 -68 -28 -92 -28 -188 0 -105 3 -116
51 -260 129 -380 296 -698 524 -996 175 -228 426 -481 670 -673 118 -94 313
-220 470 -304 84 -45 307 -150 334 -156 6 -2 24 -8 40 -15 49 -20 227 -81 265
-91 19 -4 67 -17 106 -29 39 -11 86 -23 104 -26 18 -3 36 -8 40 -10 6 -4 197
-37 281 -49 163 -24 451 -34 584 -22 28 3 84 8 125 12 41 3 86 7 100 9 14 1
57 5 95 9 149 14 173 17 285 37 458 80 1012 340 1424 669 152 121 360 325 487
475 259 309 441 615 614 1035 137 332 140 503 15 709 -56 90 -274 417 -281
419 -5 2 -9 8 -9 14 0 14 -211 294 -305 403 -289 337 -607 594 -926 749 -110
52 -272 113 -329 122 -14 3 -32 7 -40 10 -8 3 -42 8 -75 12 -398 46 -714 -153
-804 -508 -23 -90 -25 -279 -4 -371 38 -166 100 -317 169 -410 101 -138 269
-233 468 -265 21 -3 48 -8 60 -10 11 -3 44 -7 71 -10 28 -3 66 -7 85 -9 51 -7
271 -14 550 -20 135 -2 278 -9 318 -15 197 -28 321 -116 404 -288 27 -56 32
-78 32 -137 -1 -70 -8 -93 -75 -242 -10 -23 -19 -44 -19 -47 0 -7 -42 -100
-105 -231 -73 -151 -236 -390 -345 -506 -151 -160 -223 -230 -305 -294 -27
-22 -58 -48 -69 -57 -11 -10 -38 -30 -60 -45 -23 -15 -57 -40 -77 -55 -58 -44
-262 -164 -377 -222 -233 -117 -537 -216 -742 -242 -19 -3 -46 -7 -60 -9 -109
-20 -599 -28 -724 -12 -91 12 -129 17 -152 22 -12 3 -39 7 -60 11 -245 37
-602 167 -850 309 -56 33 -236 147 -244 155 -3 3 -41 32 -84 64 -383 285 -681
661 -876 1106 -74 168 -90 261 -64 371 25 109 113 235 197 283 114 66 201 76
762 91 439 12 451 13 595 51 273 73 464 252 548 514 57 176 71 370 37 510 -29
122 -87 222 -185 321 -98 99 -177 148 -293 179 -72 20 -198 30 -272 22z m8
-732 c91 -14 164 -47 202 -92 24 -29 27 -38 22 -84 -11 -106 -59 -161 -211
-238 -141 -72 -290 -97 -421 -70 -102 21 -132 40 -195 119 -32 40 -36 68 -20
126 29 102 252 227 443 247 39 4 79 7 87 6 8 -2 50 -8 93 -14z m2792 -19 c108
-31 203 -82 264 -143 54 -53 71 -91 64 -148 -6 -52 -48 -117 -91 -139 -159
-79 -455 -45 -637 75 -101 66 -134 122 -130 217 1 36 6 70 9 76 12 19 103 61
164 75 86 21 258 15 357 -13z"/>
<path d="M3315 3249 c-134 -19 -145 -21 -260 -50 -143 -36 -265 -80 -307 -113
-103 -78 -125 -227 -46 -303 44 -41 69 -53 146 -69 132 -28 209 -101 257 -244
25 -74 74 -125 138 -144 203 -57 394 -53 521 10 60 30 63 33 127 161 73 146
165 222 287 238 98 12 136 53 148 156 5 45 2 54 -39 118 -49 75 -99 115 -200
161 -80 36 -126 49 -246 66 -25 4 -55 8 -66 11 -42 9 -403 11 -460 2z"/>
<path d="M2080 2933 c-171 -26 -291 -115 -334 -248 -29 -92 -19 -229 23 -284
l18 -23 24 32 c13 17 40 50 60 72 51 59 71 51 161 -68 82 -108 295 -327 396
-408 75 -59 235 -158 327 -200 108 -50 119 -55 165 -72 339 -122 681 -131
1045 -28 50 14 104 31 120 38 17 8 41 17 55 21 14 4 77 33 141 65 260 130 460
302 664 573 37 49 76 92 88 96 28 11 58 -1 106 -40 87 -69 135 -40 134 80 -1
73 -30 170 -67 230 -85 135 -307 201 -501 151 -88 -23 -237 -96 -252 -123 -12
-24 -11 -25 20 -31 32 -6 103 -16 142 -21 11 -1 21 -3 23 -4 24 -9 -320 -359
-422 -429 -145 -101 -321 -175 -491 -206 -137 -25 -374 -17 -520 19 -51 12
-169 47 -190 55 -108 46 -191 89 -263 137 -140 93 -291 255 -356 381 -19 36
-21 33 54 53 25 6 57 18 73 25 26 14 26 16 11 39 -16 25 -125 72 -232 99 -59
16 -179 26 -222 19z"/>
</g>
</svg>
